<svg xmlns="http://www.w3.org/2000/svg" viewBox="0 0 960 540" role="img" aria-label="Engine Telemetry theme preview">
  <defs>
    <linearGradient id="bg" x1="0" x2="1" y1="0" y2="1">
      <stop offset="0" stop-color="#101820"/>
      <stop offset="1" stop-color="#19242b"/>
    </linearGradient>
    <linearGradient id="signal" x1="0" x2="1">
      <stop offset="0" stop-color="#70f0d5"/>
      <stop offset="1" stop-color="#f0b95d"/>
    </linearGradient>
    <filter id="softGlow" x="-40%" y="-40%" width="180%" height="180%">
      <feGaussianBlur stdDeviation="4" result="blur"/>
      <feMerge>
        <feMergeNode in="blur"/>
        <feMergeNode in="SourceGraphic"/>
      </feMerge>
    </filter>
  </defs>
  <rect width="960" height="540" fill="url(#bg)"/>
  <g opacity="0.24" stroke="#6dd9ca" stroke-width="1">
    <path d="M0 84H960M0 168H960M0 252H960M0 336H960M0 420H960"/>
    <path d="M96 0V540M192 0V540M288 0V540M384 0V540M480 0V540M576 0V540M672 0V540M768 0V540M864 0V540"/>
  </g>
  <rect x="28" y="28" width="210" height="484" rx="10" fill="#142027" stroke="#2f5158"/>
  <rect x="722" y="28" width="210" height="484" rx="10" fill="#151f26" stroke="#4c5153"/>
  <rect x="274" y="28" width="412" height="484" rx="12" fill="#101a21" stroke="#2c5559"/>
  <text x="54" y="68" fill="#7de2d1" font-family="Inter, Segoe UI, sans-serif" font-size="18" font-weight="700">SOURCE SPINE</text>
  <text x="744" y="68" fill="#f0b95d" font-family="Inter, Segoe UI, sans-serif" font-size="18" font-weight="700">INSPECTOR RACK</text>
  <g fill="#26343b">
    <rect x="54" y="96" width="150" height="12" rx="6"/>
    <rect x="54" y="124" width="118" height="12" rx="6"/>
    <rect x="54" y="152" width="168" height="12" rx="6"/>
    <rect x="744" y="102" width="148" height="12" rx="6"/>
    <rect x="744" y="132" width="126" height="12" rx="6"/>
    <rect x="744" y="190" width="132" height="12" rx="6"/>
    <rect x="744" y="220" width="106" height="12" rx="6"/>
  </g>
  <path d="M438 186 C506 122 570 124 604 210" fill="none" stroke="url(#signal)" stroke-width="5" filter="url(#softGlow)"/>
  <path d="M438 288 C510 340 570 330 604 276" fill="none" stroke="#7de2d1" stroke-width="4" opacity="0.85"/>
  <g font-family="Inter, Segoe UI, sans-serif">
    <rect x="318" y="154" width="154" height="92" rx="8" fill="#202d35" stroke="#72e4d1" stroke-width="2"/>
    <text x="336" y="184" fill="#7de2d1" font-size="13" font-weight="800">ROOT</text>
    <text x="336" y="212" fill="#eef7f1" font-size="18" font-weight="800">Entry Module</text>
    <rect x="566" y="204" width="154" height="92" rx="8" fill="#202d35" stroke="#f0b95d" stroke-width="2"/>
    <text x="584" y="234" fill="#f0b95d" font-size="13" font-weight="800">GATE</text>
    <text x="584" y="262" fill="#eef7f1" font-size="18" font-weight="800">Branch Logic</text>
    <rect x="318" y="292" width="154" height="92" rx="8" fill="#202d35" stroke="#72e4d1" stroke-width="2"/>
    <text x="336" y="322" fill="#7de2d1" font-size="13" font-weight="800">SYNC</text>
    <text x="336" y="350" fill="#eef7f1" font-size="18" font-weight="800">Story Beat</text>
  </g>
</svg>
