<svg xmlns="http://www.w3.org/2000/svg" width="960" height="540" viewBox="0 0 960 540" role="img" aria-labelledby="title desc">
  <title id="title">Prism Foundry theme preview</title>
  <desc id="desc">A cold-white liquid glass PlotFlow workspace with violet controls and cyan narrative signal routes.</desc>
  <defs>
    <linearGradient id="bg" x1="0" y1="0" x2="1" y2="1">
      <stop offset="0" stop-color="#F8F8FF"/>
      <stop offset="1" stop-color="#E6ECFF"/>
    </linearGradient>
    <linearGradient id="glass" x1="0" y1="0" x2="1" y2="1">
      <stop offset="0" stop-color="#FFFFFF" stop-opacity="0.88"/>
      <stop offset="1" stop-color="#EEEAFE" stop-opacity="0.64"/>
    </linearGradient>
    <linearGradient id="violet" x1="0" y1="0" x2="1" y2="1">
      <stop offset="0" stop-color="#8C63EA"/>
      <stop offset="1" stop-color="#5934A7"/>
    </linearGradient>
    <filter id="shadow" x="-20%" y="-20%" width="140%" height="150%">
      <feDropShadow dx="0" dy="18" stdDeviation="18" flood-color="#6955B8" flood-opacity="0.2"/>
    </filter>
  </defs>
  <rect width="960" height="540" fill="url(#bg)"/>
  <g opacity="0.54" stroke="#90A2D6" stroke-width="1">
    <path d="M0 92H960M0 184H960M0 276H960M0 368H960M0 460H960"/>
    <path d="M72 0V540M164 0V540M256 0V540M348 0V540M440 0V540M532 0V540M624 0V540M716 0V540M808 0V540M900 0V540"/>
  </g>
  <rect x="28" y="24" width="904" height="492" rx="30" fill="url(#glass)" stroke="#FFFFFF" filter="url(#shadow)"/>
  <rect x="52" y="48" width="856" height="54" rx="18" fill="#FFFFFF" fill-opacity="0.7" stroke="#D8D5F0"/>
  <circle cx="84" cy="75" r="10" fill="url(#violet)"/>
  <rect x="106" y="65" width="142" height="19" rx="9.5" fill="#302B50"/>
  <rect x="694" y="62" width="86" height="26" rx="13" fill="#EFEAFF"/>
  <rect x="792" y="62" width="92" height="26" rx="13" fill="url(#violet)"/>
  <rect x="52" y="122" width="182" height="370" rx="22" fill="#F7F8FF" fill-opacity="0.72" stroke="#D9DAEE"/>
  <rect x="254" y="122" width="450" height="370" rx="22" fill="#EAF0FF" fill-opacity="0.46" stroke="#D0D8F2"/>
  <rect x="724" y="122" width="184" height="370" rx="22" fill="#F9F9FF" fill-opacity="0.75" stroke="#D9DAEE"/>
  <g fill="#777390" opacity="0.82">
    <rect x="74" y="152" width="96" height="10" rx="5"/>
    <rect x="74" y="184" width="122" height="8" rx="4"/>
    <rect x="74" y="208" width="94" height="8" rx="4"/>
    <rect x="74" y="252" width="102" height="8" rx="4"/>
    <rect x="74" y="276" width="74" height="8" rx="4"/>
  </g>
  <g fill="url(#glass)" stroke="#CDC8EC" filter="url(#shadow)">
    <rect x="302" y="190" width="178" height="112" rx="18"/>
    <rect x="506" y="294" width="164" height="102" rx="18"/>
    <rect x="490" y="148" width="144" height="92" rx="18"/>
  </g>
  <path d="M480 246C500 230 500 204 490 194" fill="none" stroke="#42B4D1" stroke-width="5" stroke-linecap="round"/>
  <path d="M480 262C516 286 518 330 506 344" fill="none" stroke="#42B4D1" stroke-width="5" stroke-linecap="round"/>
  <path d="M396 302C418 360 454 348 506 344" fill="none" stroke="#7650D0" stroke-width="4" stroke-dasharray="8 8" stroke-linecap="round"/>
  <g fill="#393255">
    <rect x="324" y="214" width="70" height="10" rx="5"/>
    <rect x="324" y="240" width="118" height="8" rx="4" opacity="0.6"/>
    <rect x="524" y="174" width="72" height="9" rx="4.5"/>
    <rect x="524" y="198" width="84" height="7" rx="3.5" opacity="0.6"/>
    <rect x="528" y="318" width="84" height="9" rx="4.5"/>
    <rect x="528" y="342" width="102" height="7" rx="3.5" opacity="0.6"/>
  </g>
  <g fill="#777390" opacity="0.8">
    <rect x="746" y="154" width="100" height="10" rx="5"/>
    <rect x="746" y="190" width="132" height="8" rx="4"/>
    <rect x="746" y="214" width="104" height="8" rx="4"/>
    <rect x="746" y="264" width="112" height="8" rx="4"/>
    <rect x="746" y="288" width="84" height="8" rx="4"/>
  </g>
</svg>
